:FULLY-SPECIFIED
:FORCE-ALL-JOINTS-BE-3DOF
:DEGREES
1019
root 1.14546 15.1608 32.4346 4.8431 -3.42107 3.56271
lfemur 8.42952 0.453534 5.73844
ltibia 0 0 0
lfoot -30.1343 -11.0135 -6.01987e-06
ltoes -34.3942 0 0
rfemur -31.5495 -15.9299 -6.02269
rtibia 50.179 -0 0
rfoot -22.3881 4.68023 0.000268619
rtoes -42.5992 0 0
lowerback -1.4215 -0.154296 0.288487
upperback -0.523139 -0.193772 -5.93079
thorax 0.237794 -0.103852 -6.31524
lowerneck -7.21784 0.91676 6.2267
upperneck 1.64316 0.534214 3.511
head 1.75088 0.402345 0.0691674
lclavicle 0 0 0
lhumerus -58.6476 -46.4736 115.302
lradius 55.7219 -0 0
lwrist 25.2364 0 0
lhand 37.2391 24.892 3.78696e-05
lfingers 0 0 0
lthumb 60.0698 38.5988 2.68084e-05
rclavicle 0 0 0
rhumerus 2.77456 -23.8728 0.227766
rradius 27.6528 -0 0
rwrist -10.2916 0 0
rhand -30.7351 -42.9112 0.000118835
rfingers 0 0 0
rthumb -4.02735 -72.853 0.000114275
1020
root 1.14528 15.1607 32.4362 4.84193 -3.40864 3.54689
lfemur 8.43861 0.442414 5.75477
ltibia 0 0 0
lfoot -30.1394 -11.0055 -4.91917e-06
ltoes -34.4091 0 0
rfemur -31.537 -15.9315 -6.01551
rtibia 50.1888 -0 0
rfoot -22.3549 4.73466 0.000219503
rtoes -42.5149 0 0
lowerback -1.43586 -0.145543 0.266239
upperback -0.524052 -0.181294 -5.93958
thorax 0.246371 -0.0974269 -6.31166
lowerneck -7.21727 0.9091 6.25666
upperneck 1.65987 0.520442 3.51437
head 1.75623 0.396378 0.0647162
lclavicle 0 0 0
lhumerus -58.6577 -46.4914 115.304
lradius 55.7371 -0 0
lwrist 25.2463 0 0
lhand 37.2461 24.9287 3.09453e-05
lfingers 0 0 0
lthumb 60.0757 38.6293 2.19067e-05
rclavicle 0 0 0
rhumerus 2.75701 -23.8607 0.237232
rradius 27.6445 -0 0
rwrist -10.2467 0 0
rhand -30.7224 -42.8482 9.71065e-05
rfingers 0 0 0
rthumb -4.01512 -72.7903 9.33803e-05
1021
root 1.1451 15.1606 32.4376 4.84089 -3.39772 3.533
lfemur 8.44659 0.432646 5.76911
ltibia 0 0 0
lfoot -30.1438 -10.9984 -3.37095e-06
ltoes -34.4221 0 0
rfemur -31.526 -15.933 -6.0092
rtibia 50.1974 -0 0
rfoot -22.3259 4.78246 0.000150419
rtoes -42.441 0 0
lowerback -1.44847 -0.13786 0.246699
upperback -0.524856 -0.170335 -5.94731
thorax 0.253904 -0.0917848 -6.30852
lowerneck -7.21677 0.902373 6.28297
upperneck 1.67454 0.508347 3.51732
head 1.76092 0.391138 0.0608066
lclavicle 0 0 0
lhumerus -58.6666 -46.5071 115.306
lradius 55.7505 -0 0
lwrist 25.2549 0 0
lhand 37.2521 24.961 2.12059e-05
lfingers 0 0 0
lthumb 60.0809 38.6561 1.50119e-05
rclavicle 0 0 0
rhumerus 2.7416 -23.8501 0.245541
rradius 27.6373 -0 0
rwrist -10.2072 0 0
rhand -30.7113 -42.7929 6.6544e-05
rfingers 0 0 0
rthumb -4.00438 -72.7352 6.39906e-05
1022
root 1.14494 15.1605 32.4387 4.84006 -3.38904 3.52194
lfemur 8.45294 0.424874 5.78052
ltibia 0 0 0
lfoot -30.1473 -10.9928 -1.75067e-06
ltoes -34.4325 0 0
rfemur -31.5173 -15.9342 -6.00419
rtibia 50.2042 -0 0
rfoot -22.3027 4.8205 7.81186e-05
rtoes -42.3821 0 0
lowerback -1.45851 -0.131751 0.231152
upperback -0.525496 -0.161616 -5.95345
thorax 0.259897 -0.0872961 -6.30602
lowerneck -7.21637 0.89702 6.30391
upperneck 1.68621 0.498723 3.51967
head 1.76466 0.38697 0.0576958
lclavicle 0 0 0
lhumerus -58.6736 -46.5196 115.308
lradius 55.7611 -0 0
lwrist 25.2618 0 0
lhand 37.257 24.9867 1.10131e-05
lfingers 0 0 0
lthumb 60.085 38.6774 7.79632e-06
rclavicle 0 0 0
rhumerus 2.72934 -23.8416 0.252149
rradius 27.6316 -0 0
rwrist -10.1758 0 0
rhand -30.7025 -42.7489 3.4559e-05
rfingers 0 0 0
rthumb -3.99583 -72.6914 3.32329e-05
1023
root 1.14483 15.1605 32.4395 4.83952 -3.3833 3.51464
lfemur 8.45713 0.419738 5.78805
ltibia 0 0 0
lfoot -30.1497 -10.9891 -4.91586e-07
ltoes -34.4393 0 0
rfemur -31.5116 -15.9349 -6.00088
rtibia 50.2088 -0 0
rfoot -22.2874 4.84562 2.19356e-05
rtoes -42.3432 0 0
lowerback -1.46514 -0.127717 0.220881
upperback -0.52592 -0.155857 -5.95751
thorax 0.263856 -0.0843312 -6.30437
lowerneck -7.21611 0.893485 6.31774
upperneck 1.69393 0.492366 3.52122
head 1.76713 0.384216 0.0556408
lclavicle 0 0 0
lhumerus -58.6783 -46.5278 115.309
lradius 55.7682 -0 0
lwrist 25.2664 0 0
lhand 37.2601 25.0037 3.09245e-06
lfingers 0 0 0
lthumb 60.0877 38.6915 2.18919e-06
rclavicle 0 0 0
rhumerus 2.72124 -23.836 0.256512
rradius 27.6278 -0 0
rwrist -10.1551 0 0
rhand -30.6966 -42.7199 9.70412e-06
rfingers 0 0 0
rthumb -3.99019 -72.6625 9.33175e-06
1024
root 1.14901 15.1597 32.45 4.83932 -3.38123 3.512
lfemur 8.45864 0.417884 5.79077
ltibia 1.43125e-14 0 0
lfoot -30.1505 -10.9878 0
ltoes -34.4418 0 0
rfemur -31.5095 -15.9352 -5.99968
rtibia 50.2104 0 0
rfoot -22.2819 4.85469 0
rtoes -42.3292 0 0
lowerback -1.46754 -0.126261 0.217172
upperback -0.526073 -0.153777 -5.95898
thorax 0.265286 -0.0832606 -6.30377
lowerneck -7.21602 0.892208 6.32273
upperneck 1.69671 0.49007 3.52178
head 1.76802 0.383222 0.0548987
lclavicle 9.93923e-17 -7.95139e-15 0
lhumerus -58.68 -46.5308 115.309
lradius 55.7707 0 0
lwrist 25.268 0 0
lhand 37.2613 25.0098 0
lfingers 7.12502 0 0
lthumb 60.0887 38.6966 0
rclavicle 9.93923e-17 -7.95139e-15 0
rhumerus 2.71832 -23.834 0.258088
rradius 27.6264 0 0
rwrist -10.1476 0 0
rhand -30.6945 -42.7094 0
rfingers 7.12502 0 0
rthumb -3.98815 -72.652 0
1025
root 1.15028 15.1595 32.4529 4.83979 -3.38447 3.51291
lfemur 8.46784 0.42098 5.78618
ltibia 0 0 0
lfoot -30.156 -10.9962 6.24506e-06
ltoes -34.4333 0 0
rfemur -31.5053 -15.9532 -6.00798
rtibia 50.2102 -0 0
rfoot -22.2692 4.91395 0.000101513
rtoes -42.268 0 0
lowerback -1.47772 -0.123586 0.204004
upperback -0.5241 -0.149565 -5.96324
thorax 0.273524 -0.0809825 -6.30069
lowerneck -7.20743 0.890725 6.33073
upperneck 1.68396 0.488709 3.52306
head 1.76231 0.382091 0.0538669
lclavicle 0 0 0
lhumerus -58.6812 -46.5452 115.311
lradius 55.7716 -0 0
lwrist 25.2796 0 0
lhand 37.2662 25.0175 5.05201e-06
lfingers 0 0 0
lthumb 60.0929 38.6999 1.83122e-06
rclavicle 0 0 0
rhumerus 2.71476 -23.8343 0.263502
rradius 27.6172 -0 0
rwrist -10.13 0 0
rhand -30.6886 -42.6948 1.16178e-05
rfingers 0 0 0
rthumb -3.98243 -72.6375 1.11605e-05
1026
root 1.15175 15.1593 32.4559 4.84046 -3.3891 3.51422
lfemur 8.48102 0.425415 5.77962
ltibia 0 0 0
lfoot -30.1639 -11.0082 1.37791e-05
ltoes -34.421 0 0
rfemur -31.4992 -15.979 -6.01987
rtibia 50.2098 -0 0
rfoot -22.251 4.99883 0.000223978
rtoes -42.1803 0 0
lowerback -1.49231 -0.119758 0.185145
upperback -0.521274 -0.143532 -5.96933
thorax 0.285322 -0.0777209 -6.29628
lowerneck -7.19512 0.888598 6.34218
upperneck 1.66569 0.486761 3.52489
head 1.75414 0.380471 0.0523896
lclavicle 0 0 0
lhumerus -58.6829 -46.5658 115.315
lradius 55.7728 -0 0
lwrist 25.2963 0 0
lhand 37.2732 25.0285 1.11468e-05
lfingers 0 0 0
lthumb 60.0988 38.7045 4.04041e-06
rclavicle 0 0 0
rhumerus 2.70965 -23.8348 0.271255
rradius 27.604 -0 0
rwrist -10.1047 0 0
rhand -30.6801 -42.674 2.56335e-05
rfingers 0 0 0
rthumb -3.97423 -72.6168 2.46245e-05
1027
root 1.15335 15.1591 32.4589 4.84128 -3.39478 3.51582
lfemur 8.49715 0.430846 5.77158
ltibia 0 0 0
lfoot -30.1736 -11.0229 2.07421e-05
ltoes -34.4061 0 0
rfemur -31.4917 -16.0105 -6.03443
rtibia 50.2094 -0 0
rfoot -22.2287 5.10272 0.000337162
rtoes -42.0729 0 0
lowerback -1.51016 -0.11508 0.162057
upperback -0.517816 -0.136147 -5.97679
thorax 0.299765 -0.0737294 -6.29088
lowerneck -7.18005 0.885992 6.3562
upperneck 1.64333 0.484376 3.52713
head 1.74414 0.378488 0.0505813
lclavicle 0 0 0
lhumerus -58.685 -46.591 115.319
lradius 55.7744 -0 0
lwrist 25.3166 0 0
lhand 37.2817 25.042 1.67796e-05
lfingers 0 0 0
lthumb 60.1061 38.7103 6.08216e-06
rclavicle 0 0 0
rhumerus 2.70341 -23.8354 0.280747
rradius 27.5878 -0 0
rwrist -10.0738 0 0
rhand -30.6697 -42.6484 3.85869e-05
rfingers 0 0 0
rthumb -3.9642 -72.5914 3.70681e-05
